<svg width="360" height="86" viewBox="0 0 360 86" xmlns="http://www.w3.org/2000/svg" xmlns:xlink="http://www.w3.org/1999/xlink">
    <defs>
        <linearGradient x1="0%" y1="50%" x2="100%" y2="50%" id="8vxsoldnkb">
            <stop stop-color="#983F96" offset="0%"/>
            <stop stop-color="#543A97" offset="100%"/>
        </linearGradient>
        <path d="M16 0h328c8.837 0 16 7.163 16 16v70H0V16C0 7.163 7.163 0 16 0z" id="ipz00s0fxa"/>
    </defs>
    <g fill="none" fill-rule="evenodd">
        <mask id="rlj567acxc" fill="#fff">
            <use xlink:href="#ipz00s0fxa"/>
        </mask>
        <use fill="url(#8vxsoldnkb)" xlink:href="#ipz00s0fxa"/>
        <g opacity=".147" mask="url(#rlj567acxc)">
            <g transform="matrix(-1 0 0 1 385.73 -30.2)" fill-rule="nonzero">
                <path d="M58.04 127.145a6.419 6.419 0 0 1-.624 3.037l-4.318 9.104c-1.63 3.438-4.91 5.779-8.558 6.11l-7.16.647a9.523 9.523 0 0 1-9.024-4.52l-5.551-8.775-5.725 11.665c-1.502 3.168-5.214 4.625-8.291 3.254-3.077-1.37-4.353-5.05-2.851-8.218l4.317-9.104c1.63-3.438 4.91-5.779 8.558-6.109l7.16-.647a9.523 9.523 0 0 1 9.024 4.518l5.305 9.214 5.972-12.103c1.502-3.168 5.214-4.625 8.29-3.254 2.115.942 3.38 2.974 3.476 5.181z" fill="#8BB6EF"/>
                <path d="M72 103.37a6.283 6.283 0 0 0 2.415-1.907l5.965-7.788c2.252-2.94 2.657-6.78 1.054-10.017l-3.145-6.354c-1.602-3.237-4.965-5.377-8.776-5.583l-10.809-.712 7.542-10.143c2.076-2.71 1.457-6.513-1.382-8.494-2.839-1.981-6.823-1.39-8.899 1.32L50 61.48c-2.252 2.94-2.656 6.78-1.054 10.016l3.145 6.354c1.602 3.237 4.965 5.377 8.776 5.584l11.075.304-7.808 10.55c-2.076 2.71-1.457 6.513 1.382 8.495 1.951 1.361 4.443 1.508 6.484.588z" fill="#FFA585"/>
                <path d="m58.103 71.868.601-.86 10.809.713c3.275.177 6.218 1.784 7.999 4.287-1.46 2.085-3.004 4.116-4.583 6.123a8.106 8.106 0 0 0-.987 1.607l-11.075-.304c-3.43-.186-6.498-1.94-8.245-4.65a560.26 560.26 0 0 0 5.481-6.916z" fill="#EF7C85"/>
                <path d="m26.666 90.334-5.34-2.548c-1.592-.76-2.238-2.61-1.441-4.13l2.67-5.096c.796-1.52 2.733-2.137 4.325-1.377l5.34 2.549c1.592.76 2.238 2.609 1.442 4.13l-2.67 5.095c-.797 1.52-2.733 2.137-4.326 1.377z" fill="#FFE266"/>
                <path d="m112.332 90.35-7.537 4.153c-2.248 1.24-5.123.504-6.421-1.642l-4.352-7.194c-1.298-2.146-.527-4.89 1.72-6.13l7.538-4.153c2.248-1.24 5.123-.504 6.421 1.642l4.352 7.194c1.298 2.146.528 4.89-1.72 6.13z" fill="#78EAC4"/>
                <path d="m31.802 38.803 2.146 5.693a.934.934 0 0 0 .504.534l5.361 2.279c.757.322.757 1.46 0 1.782l-5.361 2.279a.934.934 0 0 0-.504.534l-2.146 5.693a.885.885 0 0 1-1.678 0l-2.147-5.693a.934.934 0 0 0-.503-.534l-5.362-2.279c-.757-.322-.757-1.46 0-1.782l5.362-2.279a.933.933 0 0 0 .503-.534l2.146-5.693a.886.886 0 0 1 1.68 0z" fill="#CAB4EF"/>
                <path d="m110.58 27.622 1.55 3.985c.067.17.198.306.364.374l3.872 1.595c.547.226.547 1.022 0 1.248l-3.872 1.595a.664.664 0 0 0-.364.374l-1.55 3.985a.646.646 0 0 1-1.212 0l-1.55-3.985a.662.662 0 0 0-.364-.374l-3.872-1.595c-.547-.226-.547-1.022 0-1.248l3.872-1.595a.664.664 0 0 0 .364-.374l1.55-3.985a.646.646 0 0 1 1.212 0z" fill="#FFC7B6"/>
                <ellipse fill="#8BB6EF" transform="rotate(-22.514 86.181 46.146)" cx="86.181" cy="46.146" rx="4.522" ry="4.372"/>
                <ellipse fill="#EF8BBD" cx="46.66" cy="36.2" rx="2.093" ry="2"/>
                <ellipse fill="#FFE266" cx="117.823" cy="54.2" rx="2.093" ry="2"/>
                <path d="M175.443 104.822a7.396 7.396 0 0 1-3.116 1.607L161.34 109.1c-4.15 1.01-8.434-.204-11.18-3.167l-5.39-5.815c-2.747-2.963-3.535-7.22-2.055-11.11l4.06-11.086-14.209 3.254c-3.823.93-7.613-1.29-8.465-4.958-.851-3.668 1.558-7.394 5.38-8.325l10.988-2.672c4.15-1.009 8.434.205 11.18 3.168l5.39 5.815c2.747 2.963 3.534 7.22 2.055 11.11l-4.615 11.18 14.764-3.348c3.823-.93 7.613 1.29 8.465 4.958.585 2.52-.37 5.069-2.265 6.718z" fill="#A183E2"/>
                <path d="m146.775 77.922-.428 1.167-3.632 9.919c-1.272 3.343-.867 6.957 1.015 9.788 3.24-.65 7.546-1.47 10.75-2.302l.591-1.433 4.024-9.747c1.331-3.502.825-7.301-1.293-10.186-3.276.87-7.74 1.973-11.027 2.794z" fill="#9762E2"/>
                <g>
                    <path d="M177.635 46.512a7.035 7.035 0 0 1-.1-3.445l2.396-10.726c.904-4.051 3.91-7.164 7.842-8.122l7.72-1.881c3.932-.959 8.19.384 11.11 3.503l8.388 8.756 3.282-13.776c.834-3.733 4.545-5.942 8.289-4.935 3.744 1.007 6.103 4.85 5.27 8.582l-2.395 10.727c-.905 4.05-3.91 7.163-7.843 8.121l-7.719 1.881c-3.933.959-8.19-.384-11.11-3.503l-8.23-9.277-3.441 14.297c-.833 3.733-4.544 5.942-8.288 4.935-2.574-.692-4.493-2.723-5.171-5.137z" fill="#EF8BBD"/>
                    <path d="m214.686 35.73.305-1.133-8.389-8.756c-2.51-2.68-6.007-4.047-9.437-3.77-.74 2.754-1.372 5.541-1.96 8.34a9.089 9.089 0 0 1-.67 2.006l8.23 9.277c2.63 2.809 6.342 4.175 9.925 3.721a627.89 627.89 0 0 1 1.996-9.684z" fill="#E269A5"/>
                </g>
                <path d="m274.4 39.113-5.976-2.856c-1.783-.852-2.506-2.925-1.615-4.63l2.989-5.712c.892-1.704 3.06-2.395 4.843-1.543l5.977 2.857c1.783.852 2.506 2.924 1.614 4.629l-2.989 5.713c-.891 1.704-3.06 2.395-4.842 1.542z" fill="#FFE266"/>
                <path d="m211.615 76.683 1.67 4.554c.07.194.212.35.391.427l4.17 1.823c.59.258.59 1.168 0 1.426l-4.17 1.823a.74.74 0 0 0-.392.428l-1.669 4.554c-.236.643-1.07.643-1.305 0l-1.67-4.554a.738.738 0 0 0-.391-.428l-4.17-1.823c-.59-.258-.59-1.168 0-1.426l4.17-1.823a.74.74 0 0 0 .391-.427l1.67-4.554c.235-.644 1.07-.644 1.305 0z" fill="#FFC7B6"/>
                <ellipse fill="#EF8BBD" cx="160.73" cy="42.2" rx="2.093" ry="2"/>
                <ellipse fill="#EF8BBD" cx="227.707" cy="61.2" rx="2.093" ry="2"/>
            </g>
        </g>
    </g>
</svg>
